<?xml version="1.0" encoding="utf-8"?>
<svg width="16px" height="16px" viewBox="0 0 16 16" version="1.1" xmlns:xlink="http://www.w3.org/1999/xlink" xmlns="http://www.w3.org/2000/svg">
  <defs>
    <path d="M3.999 2L12.001 2Q12.0992 2 12.1969 2.00963Q12.2947 2.01925 12.391 2.03841Q12.4873 2.05757 12.5813 2.08608Q12.6753 2.11458 12.766 2.15216Q12.8567 2.18975 12.9433 2.23604Q13.0299 2.28233 13.1116 2.33689Q13.1932 2.39145 13.2692 2.45375Q13.3451 2.51605 13.4145 2.58549Q13.4839 2.65493 13.5462 2.73085Q13.6085 2.80676 13.6631 2.88841Q13.7177 2.97007 13.764 3.05668Q13.8103 3.14329 13.8478 3.23402Q13.8854 3.32474 13.9139 3.41872Q13.9424 3.5127 13.9616 3.60901Q13.9807 3.70533 13.9904 3.80306Q14 3.9008 14 3.999L14 12.001Q14 12.0992 13.9904 12.1969Q13.9807 12.2947 13.9616 12.391Q13.9424 12.4873 13.9139 12.5813Q13.8854 12.6753 13.8478 12.766Q13.8103 12.8567 13.764 12.9433Q13.7177 13.0299 13.6631 13.1116Q13.6085 13.1932 13.5462 13.2692Q13.4839 13.3451 13.4145 13.4145Q13.3451 13.4839 13.2692 13.5462Q13.1932 13.6085 13.1116 13.6631Q13.0299 13.7177 12.9433 13.764Q12.8567 13.8103 12.766 13.8478Q12.6753 13.8854 12.5813 13.9139Q12.4873 13.9424 12.391 13.9616Q12.2947 13.9807 12.1969 13.9904Q12.0992 14 12.001 14L3.999 14Q3.9008 14 3.80306 13.9904Q3.70533 13.9807 3.60901 13.9616Q3.5127 13.9424 3.41872 13.9139Q3.32474 13.8854 3.23402 13.8478Q3.14329 13.8103 3.05668 13.764Q2.97007 13.7177 2.88841 13.6631Q2.80676 13.6085 2.73085 13.5462Q2.65493 13.4839 2.58549 13.4145Q2.51605 13.3451 2.45375 13.2692Q2.39145 13.1932 2.33689 13.1116Q2.28233 13.0299 2.23604 12.9433Q2.18975 12.8567 2.15216 12.766Q2.11458 12.6753 2.08608 12.5813Q2.05757 12.4873 2.03841 12.391Q2.01925 12.2947 2.00963 12.1969Q2 12.0992 2 12.001L2 3.999Q2 3.9008 2.00963 3.80306Q2.01925 3.70533 2.03841 3.60901Q2.05757 3.5127 2.08608 3.41872Q2.11458 3.32474 2.15216 3.23402Q2.18975 3.14329 2.23604 3.05668Q2.28233 2.97007 2.33689 2.88841Q2.39145 2.80676 2.45375 2.73085Q2.51605 2.65493 2.58549 2.58549Q2.65493 2.51605 2.73085 2.45375Q2.80676 2.39145 2.88841 2.33689Q2.97007 2.28233 3.05668 2.23604Q3.14329 2.18975 3.23402 2.15216Q3.32474 2.11458 3.41872 2.08608Q3.5127 2.05757 3.60901 2.03841Q3.70533 2.01925 3.80306 2.00963Q3.9008 2 3.999 2Z" id="path_1" />
    <rect width="16" height="16" id="artboard_1" />
    <clipPath id="clip_1">
      <use xlink:href="#artboard_1" clip-rule="evenodd" />
    </clipPath>
    <clipPath id="clip_2">
      <use xlink:href="#path_1" />
    </clipPath>
  </defs>
  <g id="Server" clip-path="url(#clip_1)">
    <g id="Rectangle-2" artboard="93795bb5-a874-4c41-9260-a298f61c7a67">
      <g clip-path="url(#clip_2)">
        <use xlink:href="#path_1" fill="none" stroke="#FF5653" stroke-width="2" />
      </g>
    </g>
    <path d="M7 3L13 3L13 13L7 13L7 3Z" id="Rectangle-3" fill="#FF5653" fill-rule="evenodd" stroke="none" artboard="87378e43-27f5-46ed-9f86-9122d94cb494" />
  </g>
</svg>