<?xml version="1.0" encoding="utf-8"?>
<svg width="128px" height="128px" viewBox="0 0 128 128" version="1.1" xmlns:xlink="http://www.w3.org/1999/xlink" xmlns="http://www.w3.org/2000/svg">
  <defs>
    <rect width="128" height="128" id="artboard_1" />
    <clipPath id="clip_1">
      <use xlink:href="#artboard_1" clip-rule="evenodd" />
    </clipPath>
  </defs>
  <g id="Vibrant-Logo" clip-path="url(#clip_1)">
    <path d="M49.2639 17.7773L81.861 62.5258L45.3331 73L49.2639 17.7773Z" id="Triangle" fill="#DF3E3C" fill-rule="evenodd" stroke="none" artboard="3df19cbe-2847-4f9b-99aa-1787fa0c74da" />
    <path d="M95.9695 21.2007L82.6432 74.9353L51.1398 53.686L95.9695 21.2007Z" id="Triangle-2" fill="#FF5653" fill-rule="evenodd" stroke="none" artboard="9dcfdbae-b0f4-4ebe-b55c-fa2437ff03e4" />
    <path d="M106.166 84.5774L51.1 78.859L67.7582 44.7049L106.166 84.5774Z" id="Triangle-3" fill="#FF5653" fill-rule="evenodd" stroke="none" artboard="6fae2d30-d260-4d2d-8e26-72c737cdfbae" />
    <path d="M111.037 65.5867L58.4055 82.7604L59.7317 44.7836L111.037 65.5867Z" id="Triangle-4" fill="#DF3E3C" fill-rule="evenodd" stroke="none" artboard="322e36d9-5cd1-4273-a8f2-8bd931cb9c7b" />
    <path d="M20.9481 57.7911L76 51.9355L66.8069 88.8067L20.9481 57.7911Z" id="Triangle-5" fill="#FF5653" fill-rule="evenodd" stroke="none" artboard="4378c1a9-089a-4c09-80b4-09743742df4c" />
    <path d="M31.4359 95.9865L60.715 49L84.1101 78.9444L31.4359 95.9865Z" id="Triangle-6" fill="#DF3E3C" fill-rule="evenodd" stroke="none" artboard="12176fcc-8080-45f7-80ac-2f03f92bd39d" />
    <path d="M80.8943 104.814L46 61.833L81.9297 49.4615L80.8943 104.814Z" id="Triangle-7" fill="#DF3E3C" fill-rule="evenodd" stroke="none" artboard="518d33a2-23f0-4aef-8583-79277cea0818" />
    <path d="M56.1057 109.786L55.0703 54.433L91 66.8045L56.1057 109.786Z" id="Triangle-8" fill="#FF5653" fill-rule="evenodd" stroke="none" artboard="5fb93cc4-b226-4e21-91b0-1495b2f19a46" />
    <path d="M58.1 49L87.1 49L87.1 75L58.1 75L58.1 49Z" id="Rectangle" fill="#FF5653" fill-rule="evenodd" stroke="none" artboard="e62559ae-a696-4307-9407-fe8a0b6f4fdb" />
    <path d="M69.3479 60.7739L87.3128 54.5881L94.1497 74.444L76.1849 80.6298L69.3479 60.7739Z" id="Rectangle-2" fill="#FF5653" fill-rule="evenodd" stroke="none" artboard="f670f7da-14a4-4ce7-935c-74d5b3b1c397" />
    <path d="M55.306 77.5885L70.4122 63.0007L85 78.1068L69.8939 92.6946L55.306 77.5885Z" id="Rectangle-5" fill="#FF5653" fill-rule="evenodd" stroke="none" artboard="4c51b267-3e55-40d7-853d-4bfbc07cbc98" />
    <path d="M40.0675 70.6027L50.6921 54.8509L71.4181 68.8307L60.7935 84.5824L40.0675 70.6027Z" id="Rectangle-3" fill="#FF5653" fill-rule="evenodd" stroke="none" artboard="fdc914c4-77c7-49ee-a492-87190a64a0f4" />
    <path d="M55.2661 71.8141L45.1977 55.7012L69.7911 40.3335L79.8595 56.4465L55.2661 71.8141Z" id="Rectangle-4" fill="#FF5653" fill-rule="evenodd" stroke="none" artboard="0666c9a7-d48f-4d00-96c5-b43f765122c4" />
  </g>
</svg>